# xmcd CD database file
#
# Track frame offsets:
#       150
#       13220
#       32180
#       54793
#       74115
#       86690
#       108543
#       122923
#       136033
#       158900
#       181743
#       213738
#       233623
#       256223
#       276038
#       292373
#       308888
#
# Disc length: 4339 seconds
#
# Revision: 1
# Processed by: cddbd v1.4PL0 Copyright (c) Steve Scherf et al.
# Submitted via: jack 2.99.7
#
DISCID=fd10f111
DTITLE=Eric Clapton - The Cream Of Clapton
DYEAR=1900
DGENRE=
TTITLE0=I Feel Free
TTITLE1=Sunshine Of Your Love
TTITLE2=White Room
TTITLE3=Crossroads
TTITLE4=Badge
TTITLE5=Presence Of The Lord
TTITLE6=Blues Power
TTITLE7=After Midnight
TTITLE8=Let It Rain
TTITLE9=Bell Bottom Blues
TTITLE10=Layla
TTITLE11=I Shot The Sherrif
TTITLE12=Let It Grow
TTITLE13=Knockin' On The Heaven's Door
TTITLE14=Hello Old Friend
TTITLE15=Cocaine
TTITLE16=Wonderful Tonight
EXTD=
EXTT0=
EXTT1=
EXTT2=
EXTT3=
EXTT4=
EXTT5=
EXTT6=
EXTT7=
EXTT8=
EXTT9=
EXTT10=
EXTT11=
EXTT12=
EXTT13=
EXTT14=
EXTT15=
EXTT16=
PLAYORDER=
